Patient4_TMGait_0pt7_02_right_05_GRF.mot
version=1
nRows=78
nColumns=19
inDegrees=no
endheader
time	F1x	F1y	F1z	M1x	M1y	M1z	F2x	F2y	F2z	M2x	M2y	M2z	EC1x	EC1y	EC1z	EC2x	EC2y	EC2z
4.8	4.5218	755.9238	69.9767	-244.818	-74.4754	836.1362	-3.6463	-11.6805	-0.02793	-1.7612	0.095457	-12.7919	-0.0592	0.0182	-0.0073	-0.0462	0.0165	0.9585
4.8112	0.76638	746.0415	71.1939	-241.4863	-75.2939	816.5899	-2.6382	-6.686	0.089739	-0.75705	0.076843	-7.2494	-0.0592	0.0182	-0.0073	-0.0462	0.0165	0.9585
4.8224	-1.7188	734.4291	71.9783	-237.5018	-75.4038	795.4753	-1.7648	-2.4512	0.12887	0.11999	0.10567	-2.5509	-0.0592	0.0182	-0.0073	-0.0462	0.0165	0.9585
4.8336	-2.8257	721.7137	72.229	-233.1125	-74.7491	773.8896	-1.0951	0.80486	0.12004	0.81561	0.16295	1.0703	-0.0592	0.0182	-0.0073	-0.0462	0.0165	0.9585
4.8449	-2.7372	708.5448	71.932	-228.5848	-73.3954	752.6763	-0.63245	3.0947	0.082446	1.3229	0.23556	3.633	-0.0592	0.0182	-0.0073	-0.0462	0.0165	0.9585
4.8561	-1.6804	695.5599	71.1352	-224.1726	-71.4498	732.4759	-0.36093	4.5541	0.037688	1.6617	0.31061	5.2949	-0.0592	0.0182	-0.0073	-0.0462	0.0165	0.9585
4.8673	0.097772	683.3625	69.9318	-220.1018	-69.0551	713.7697	-0.23184	5.3532	-0.01332	1.8571	0.38846	6.2363	-0.0592	0.0182	-0.0073	-0.0462	0.0165	0.9585
4.8785	2.4676	672.5353	68.4207	-216.5781	-66.3201	696.9756	-0.22091	5.6335	-0.06826	1.9243	0.47397	6.6116	-0.0592	0.0182	-0.0073	-0.0462	0.0165	0.9585
4.8897	5.368	663.7591	66.6902	-213.8226	-63.3203	682.5829	-0.28152	5.4737	-0.13425	1.8616	0.57066	6.4739	-0.0592	0.0182	-0.0073	-0.0462	0.0165	0.9585
4.9009	8.7837	657.7486	64.8267	-212.0619	-60.111	671.1215	-0.39416	4.8997	-0.21803	1.6515	0.68593	5.8374	-0.0592	0.0182	-0.0073	-0.0462	0.0165	0.9585
4.9121	12.7664	655.2474	62.9072	-211.5177	-56.7236	663.1924	-0.51372	3.863	-0.31591	1.2577	0.81031	4.6288	-0.0592	0.0182	-0.0073	-0.0462	0.0165	0.9585
4.9234	17.3117	656.757	61.0574	-212.3303	-53.2476	659.1725	-0.61904	2.3048	-0.43416	0.64244	0.94729	2.7807	-0.0592	0.0182	-0.0073	-0.0462	0.0165	0.9585
4.9346	22.4174	662.5367	59.4354	-214.5553	-49.8058	659.233	-0.65322	0.1559	-0.55811	-0.22741	1.067	0.18966	-0.0592	0.0182	-0.0073	-0.0462	0.0165	0.9585
4.9458	28.0682	672.512	58.2396	-218.1431	-46.5615	663.2414	-0.58354	-2.5704	-0.66236	-1.3469	1.1238	-3.128	-0.0592	0.0182	-0.0073	-0.0462	0.0165	0.9585
4.957	34.1906	686.2688	57.6002	-222.943	-43.6345	670.7502	-0.32431	-5.7205	-0.71565	-2.6471	1.0444	-6.988	-0.0592	0.0182	-0.0073	-0.0462	0.0165	0.9585
4.9682	40.7017	703.0103	57.575	-228.6843	-41.0892	680.9786	0.18744	-8.8903	-0.65148	-3.952	0.71995	-10.8931	-0.0592	0.0182	-0.0073	-0.0462	0.0165	0.9585
4.9794	47.4377	721.5263	58.0943	-234.9692	-38.9005	692.7717	1.0564	-11.3152	-0.39608	-4.9332	0.02204	-13.9161	-0.0592	0.0182	-0.0073	-0.0462	0.0165	0.9585
4.9906	54.2286	740.2748	58.9956	-241.2923	-36.9738	704.6858	2.3277	-11.7475	0.15299	-5.0617	-1.1907	-14.5236	-0.0592	0.0182	-0.0073	-0.0462	0.0165	0.9585
5.0019	60.8887	757.4376	60.0725	-247.0623	-35.1872	715.0778	4.0243	-8.3778	1.1041	-3.575	-3.0505	-10.5104	-0.0592	0.0182	-0.0073	-0.0462	0.0165	0.9585
5.0131	67.2788	771.1643	61.0873	-251.6745	-33.3799	722.2539	6.038	1.1814	2.5657	0.52493	-5.6361	1.0519	-0.0592	0.0182	-0.0073	-0.0462	0.0165	0.9585
5.0243	73.2806	779.6881	61.8202	-254.5462	-31.4002	724.6735	8.1275	19.7105	4.5958	8.3994	-8.896	23.5764	-0.0592	0.0182	-0.0073	-0.0462	0.0165	0.9585
5.0355	78.8373	781.4503	62.0474	-255.1642	-29.0847	720.9859	9.7981	50.0646	7.1558	21.2267	-12.5416	60.5814	-0.0592	0.0182	-0.0073	-0.0462	0.0165	0.9585
5.0467	83.8186	775.1761	61.5784	-253.1083	-26.3324	710.1552	10.2788	94.4021	10.0311	39.8869	-15.9428	114.7476	-0.0592	0.0182	-0.0073	-0.0462	0.0165	0.9585
5.0579	88.0675	759.8515	60.2156	-248.056	-23.0591	691.419	8.4105	153.1415	12.7276	64.5092	-17.9878	186.6587	-0.0592	0.0182	-0.0073	-0.0462	0.0165	0.9585
5.0691	91.2454	734.7473	57.7925	-239.7855	-19.2649	664.3151	2.7711	223.4498	14.497	93.846	-17.1788	272.9318	-0.0592	0.0182	-0.0073	-0.0462	0.0165	0.9585
5.0804	92.9425	699.3603	54.2126	-228.1571	-15.0432	628.5866	-7.413	298.0264	14.3148	124.7734	-11.9969	364.7391	-0.0592	0.0182	-0.0073	-0.0462	0.0165	0.9585
5.0916	92.6775	653.5667	49.5202	-213.1481	-10.6331	584.3039	-20.5248	366.7104	10.7493	152.9947	-1.6134	449.6421	-0.0592	0.0182	-0.0073	-0.0462	0.0165	0.9585
5.1028	90.0525	597.9039	43.9592	-194.9409	-6.4118	532.0427	-34.0876	422.6374	3.9024	175.668	12.6552	519.0193	-0.0592	0.0182	-0.0073	-0.0462	0.0165	0.9585
5.114	84.8684	533.9549	37.91	-174.0318	-2.7801	473.2765	-46.5247	466.04	-4.9409	192.8844	28.6998	572.8731	-0.0592	0.0182	-0.0073	-0.0462	0.0165	0.9585
5.1252	77.257	464.1274	31.858	-151.1905	-0.098705	410.0913	-56.826	500.6322	-14.7516	206.2644	44.8368	615.5502	-0.0592	0.0182	-0.0073	-0.0462	0.0165	0.9585
5.1364	67.5935	391.6851	26.1296	-127.4732	1.5041	345.2857	-64.7868	530.6071	-23.8756	217.6763	59.123	652.0433	-0.0592	0.0182	-0.0073	-0.0462	0.0165	0.9585
5.1476	56.511	320.2581	20.8733	-104.0791	2.1436	281.9033	-70.5373	559.0138	-31.7372	228.4746	70.8732	686.0586	-0.0592	0.0182	-0.0073	-0.0462	0.0165	0.9585
5.1589	44.8362	253.433	16.1979	-82.1916	2.0336	222.9241	-74.1835	587.4959	-37.7545	239.4153	79.5128	719.5234	-0.0592	0.0182	-0.0073	-0.0462	0.0165	0.9585
5.1701	33.4944	194.0101	12.1946	-62.7368	1.4415	170.6371	-75.848	616.6265	-42.3793	250.7156	85.5862	753.1183	-0.0592	0.0182	-0.0073	-0.0462	0.0165	0.9585
5.1813	23.2482	143.629	8.9526	-46.2556	0.57494	126.3577	-75.6722	645.9135	-46.0069	262.1507	89.644	786.2525	-0.0592	0.0182	-0.0073	-0.0462	0.0165	0.9585
5.1925	14.5321	102.6571	6.4193	-32.879	-0.34917	90.3416	-73.9286	674.075	-49.1637	273.1462	92.4144	817.4767	-0.0592	0.0182	-0.0073	-0.0462	0.0165	0.9585
5.2037	7.5084	70.518	4.519	-22.4237	-1.2047	62.0795	-70.978	699.4447	-52.1747	282.9948	94.4212	844.9294	-0.0592	0.0182	-0.0073	-0.0462	0.0165	0.9585
5.2149	2.1737	46.1214	3.1067	-14.5313	-1.8661	40.6143	-67.2186	720.6815	-54.9745	291.1461	95.8008	867.1408	-0.0592	0.0182	-0.0073	-0.0462	0.0165	0.9585
5.2261	-1.5207	28.1431	2.0684	-8.7598	-2.262	24.8114	-62.989	737.111	-57.6591	297.3235	96.7971	883.4178	-0.0592	0.0182	-0.0073	-0.0462	0.0165	0.9585
5.2374	-3.6673	15.3571	1.2958	-4.6928	-2.3467	13.6186	-58.5587	748.601	-60.0105	301.5002	97.3114	893.6641	-0.0592	0.0182	-0.0073	-0.0462	0.0165	0.9585
5.2486	-4.4386	6.6704	0.68913	-1.9585	-2.1021	6.0725	-54.1708	755.4601	-62.0786	303.8147	97.4806	898.3233	-0.0592	0.0182	-0.0073	-0.0462	0.0165	0.9585
5.2598	-4.172	1.2271	0.23372	-0.26324	-1.6379	1.3925	-49.9951	758.235	-63.728	304.5126	97.2402	898.0676	-0.0592	0.0182	-0.0073	-0.0462	0.0165	0.9585
5.271	-3.4047	-1.7088	-0.10801	0.63634	-1.0905	-1.0866	-46.2057	757.5673	-65.0214	303.867	96.718	893.6945	-0.0592	0.0182	-0.0073	-0.0462	0.0165	0.9585
5.2822	-2.4554	-2.9092	-0.30827	0.989	-0.59847	-2.0404	-42.8639	754.2031	-65.9768	302.1916	95.9697	886.0702	-0.0592	0.0182	-0.0073	-0.0462	0.0165	0.9585
5.2934	-1.5452	-2.9926	-0.42064	0.99081	-0.18638	-2.0058	-40.0373	749.0448	-66.6793	299.8596	95.1255	876.2337	-0.0592	0.0182	-0.0073	-0.0462	0.0165	0.9585
5.3046	-0.77931	-2.4839	-0.44359	0.80456	0.10189	-1.4695	-37.7587	743.2691	-67.2115	297.3465	94.3023	865.5242	-0.0592	0.0182	-0.0073	-0.0462	0.0165	0.9585
5.3159	-0.18733	-1.7166	-0.41215	0.53511	0.28332	-0.72243	-36.0883	738.1867	-67.5684	295.1767	93.5378	855.4413	-0.0592	0.0182	-0.0073	-0.0462	0.0165	0.9585
5.3271	0.234	-0.92512	-0.36187	0.25447	0.38555	0.013417	-35.0985	734.9959	-67.8005	293.8272	92.9157	847.3475	-0.0592	0.0182	-0.0073	-0.0462	0.0165	0.9585
5.3383	0.50121	-0.23572	-0.2862	0.0036226	0.4053	0.63305	-34.7722	734.6362	-67.8347	293.6644	92.3712	842.2928	-0.0592	0.0182	-0.0073	-0.0462	0.0165	0.9585
5.3495	0.66297	0.32051	-0.23036	-0.20611	0.39928	1.1103	-35.0625	737.493	-67.6863	294.8339	91.8914	840.6971	-0.0592	0.0182	-0.0073	-0.0462	0.0165	0.9585
5.3607	0.72819	0.73926	-0.16681	-0.36878	0.34916	1.4438	-35.7556	743.4491	-67.3196	297.2734	91.3524	842.3835	-0.0592	0.0182	-0.0073	-0.0462	0.0165	0.9585
5.3719	0.72759	1.0598	-0.12561	-0.49537	0.2973	1.6831	-36.5853	751.863	-66.7718	300.7118	90.6715	846.6001	-0.0592	0.0182	-0.0073	-0.0462	0.0165	0.9585
5.3831	0.68211	1.2952	-0.084376	-0.59042	0.22907	1.8434	-37.2485	761.7114	-66.0639	304.7312	89.7369	852.1714	-0.0592	0.0182	-0.0073	-0.0462	0.0165	0.9585
5.3944	0.58979	1.4599	-0.050272	-0.65783	0.15404	1.9499	-37.4747	771.7592	-65.1984	308.8262	88.4337	857.7164	-0.0592	0.0182	-0.0073	-0.0462	0.0165	0.9585
5.4056	0.49604	1.5561	-0.02491	-0.69599	0.085961	2.0044	-37.0723	780.6265	-64.1863	312.443	86.6907	861.7275	-0.0592	0.0182	-0.0073	-0.0462	0.0165	0.9585
5.4168	0.37082	1.5564	0.0052551	-0.69261	0.0065296	1.9836	-35.9074	787.0595	-63.0004	315.0697	84.4387	862.8686	-0.0592	0.0182	-0.0073	-0.0462	0.0165	0.9585
5.428	0.24623	1.4229	0.02134	-0.6328	-0.060148	1.8177	-33.9296	789.9662	-61.6874	316.2652	81.7123	860.0045	-0.0592	0.0182	-0.0073	-0.0462	0.0165	0.9585
5.4392	0.10083	1.0766	0.044145	-0.48809	-0.14013	1.4251	-31.1408	788.6643	-60.2371	315.7458	78.5125	852.4667	-0.0592	0.0182	-0.0073	-0.0462	0.0165	0.9585
5.4504	-0.048578	0.40301	0.056975	-0.22379	-0.21668	0.63437	-27.5565	782.9196	-58.6877	313.4073	74.8954	840.0776	-0.0592	0.0182	-0.0073	-0.0462	0.0165	0.9585
5.4616	-0.19944	-0.70017	0.074966	0.19545	-0.30163	-0.66596	-23.2179	772.96	-57.0356	309.3345	70.886	823.1658	-0.0592	0.0182	-0.0073	-0.0462	0.0165	0.9585
5.4729	-0.30942	-2.3353	0.08822	0.79995	-0.36755	-2.6292	-18.1373	759.4707	-55.3357	303.7913	66.5546	802.5333	-0.0592	0.0182	-0.0073	-0.0462	0.0165	0.9585
5.4841	-0.35489	-4.508	0.091106	1.5905	-0.39272	-5.2547	-12.3798	743.4706	-53.6787	297.1809	62.0172	779.341	-0.0592	0.0182	-0.0073	-0.0462	0.0165	0.9585
5.4953	-0.23252	-7.1256	0.063917	2.526	-0.31715	-8.435	-6.022	726.2109	-52.1867	289.9999	57.43	754.9667	-0.0592	0.0182	-0.0073	-0.0462	0.0165	0.9585
5.5065	0.11824	-9.8542	-0.034384	3.4861	-0.068254	-11.7554	0.7736	709.0266	-51.0238	282.7781	53.0165	730.8523	-0.0592	0.0182	-0.0073	-0.0462	0.0165	0.9585
5.5177	0.84798	-12.0553	-0.2381	4.2425	0.45066	-14.4574	7.7886	693.1621	-50.3072	276.0215	48.9728	708.3201	-0.0592	0.0182	-0.0073	-0.0462	0.0165	0.9585
5.5289	2.064	-12.6633	-0.61423	4.4182	1.3586	-15.2469	14.7768	679.7062	-50.1307	270.1775	45.4821	688.5149	-0.0592	0.0182	-0.0073	-0.0462	0.0165	0.9585
5.5401	3.8875	-10.1287	-1.1925	3.467	2.7374	-12.2545	21.4522	669.3891	-50.4834	265.5654	42.638	672.178	-0.0592	0.0182	-0.0073	-0.0462	0.0165	0.9585
5.5514	6.3642	-2.388	-2.0272	0.6651	4.659	-2.9366	27.5553	662.5357	-51.3082	262.341	40.4813	659.6299	-0.0592	0.0182	-0.0073	-0.0462	0.0165	0.9585
5.5626	9.403	12.9967	-3.0944	-4.8382	7.0659	15.6787	32.8754	658.9674	-52.4527	260.4669	38.9442	650.6851	-0.0592	0.0182	-0.0073	-0.0462	0.0165	0.9585
5.5738	12.6796	38.5761	-4.3406	-13.922	9.766	46.738	37.2881	657.9913	-53.7135	259.6987	37.8792	644.6505	-0.0592	0.0182	-0.0073	-0.0462	0.0165	0.9585
5.585	15.559	76.3766	-5.5717	-27.2751	12.2885	92.7706	40.7614	658.4136	-54.8289	259.5816	37.0533	640.3593	-0.0592	0.0182	-0.0073	-0.0462	0.0165	0.9585
5.5962	16.919	127.0054	-6.4571	-45.0738	13.8154	154.5889	43.3364	658.5023	-55.5049	259.4436	36.1766	636.1312	-0.0592	0.0182	-0.0073	-0.0462	0.0165	0.9585
5.6074	15.1965	188.3164	-6.4315	-66.5209	13.0974	229.6527	45.0932	656.1817	-55.4735	258.4578	34.9733	630.0031	-0.0592	0.0182	-0.0073	-0.0462	0.0165	0.9585
5.6186	9.1826	254.9144	-4.7224	-89.66	8.7828	311.4462	46.1362	649.126	-54.5195	255.6938	33.2117	619.7757	-0.0592	0.0182	-0.0073	-0.0462	0.0165	0.9585
5.6299	-0.20666	318.7001	-0.37978	-111.6001	0.063636	389.989	46.5563	635.1833	-52.5843	250.2792	30.8155	603.4432	-0.0592	0.0182	-0.0073	-0.0462	0.0165	0.9585
5.6411	-10.6207	371.9471	7.0052	-129.6699	-12.6046	455.5026	46.4469	612.8069	-49.7606	241.5796	27.8552	579.5501	-0.0592	0.0182	-0.0073	-0.0462	0.0165	0.9585
5.6523	-20.2971	412.3093	16.1863	-143.1116	-27.1273	504.719	45.805	581.4728	-46.2622	229.3487	24.5467	547.6446	-0.0592	0.0182	-0.0073	-0.0462	0.0165	0.9585
5.6635	-28.5787	442.142	25.8865	-152.8215	-41.6877	540.3772	44.6303	541.6361	-42.3538	213.7314	21.1513	508.1783	-0.0592	0.0182	-0.0073	-0.0462	0.0165	0.9585
